<?xml version="1.0" standalone="no"?>
<svg viewBox="0 0 200 200" xmlns="http://www.w3.org/2000/svg">
  <path fill="#2C3333" d="M47.5,-77.4C61.9,-73.9,74.1,-61.9,80.8,-47.6C87.6,-33.2,88.8,-16.6,86.4,-1.4C84,13.9,78,27.7,70.6,40.8C63.2,53.9,54.3,66.3,42.3,75.4C30.3,84.6,15.1,90.5,0,90.5C-15.1,90.4,-30.2,84.4,-41.4,74.8C-52.6,65.2,-60,52.1,-69,39C-78.1,25.9,-88.8,13,-91.8,-1.8C-94.9,-16.5,-90.3,-33,-81.2,-46C-72.1,-58.9,-58.5,-68.4,-44.3,-72C-30,-75.6,-15,-73.2,0.8,-74.6C16.5,-75.9,33.1,-80.9,47.5,-77.4Z" transform="translate(100 100)" />
</svg>
