<svg version="1.2" xmlns="http://www.w3.org/2000/svg" viewBox="0 0 814 626" width="814" height="626">
	<title>arabicCard-svg</title>
	<style>
		.s0 { fill: #e4e4e4 } 
		.s1 { fill: #ffffff } 
		.s2 { fill: #e6e6e6 } 
		.s3 { fill: #9e616a } 
		.s4 { fill: #6c63ff } 
		.s5 { fill: #2f2e41 } 
		.s6 { fill: #ffb9b9 } 
	</style>
	<path id="Layer" class="s0" d="m808.2 2.5h-803.4q-0.9 0-1.7-0.4-0.8-0.3-1.5-0.9-0.6-0.7-0.9-1.5-0.4-0.8-0.4-1.7v-26.5q0-0.9 0.4-1.7 0.3-0.8 0.9-1.5 0.7-0.6 1.5-1 0.8-0.3 1.7-0.3h803.4q0.9 0 1.7 0.3 0.9 0.4 1.5 1 0.6 0.7 1 1.5 0.3 0.8 0.3 1.7v26.5q0 0.9-0.3 1.7-0.4 0.8-1 1.5-0.6 0.6-1.5 0.9-0.8 0.4-1.7 0.4z"/>
	<path id="b6c858f0-1926-4bcd-807b-9efaf247b9cf" class="s1" d="m26.4-10.2c-3.5 0-6.3-2.8-6.3-6.4 0-3.5 2.8-6.3 6.3-6.3 3.6 0 6.4 2.8 6.4 6.3 0 3.6-2.8 6.4-6.4 6.4z"/>
	<path id="b369121d-4d8f-4c1b-b23a-4a491aa6d487" class="s1" d="m50.7-10.2c-3.5 0-6.4-2.8-6.4-6.4 0-3.5 2.9-6.3 6.4-6.3 3.5 0 6.4 2.8 6.4 6.3 0 3.6-2.9 6.4-6.4 6.4z"/>
	<path id="a3a83b48-e804-404e-aa0f-53d13c62451a" class="s1" d="m74.9-10.2c-3.5 0-6.3-2.8-6.3-6.4 0-3.5 2.8-6.3 6.3-6.3 3.6 0 6.4 2.8 6.4 6.3 0 3.6-2.8 6.4-6.4 6.4z"/>
	<path id="Layer" class="s2" d="m802.1 625.8h-357.3c-1.4 0-2.8-0.2-4.2-0.8-1.3-0.5-2.5-1.3-3.5-2.3-1-1.1-1.8-2.3-2.4-3.6-0.5-1.3-0.8-2.7-0.8-4.2v-252.5c0-1.5 0.3-2.9 0.8-4.2 0.6-1.3 1.4-2.5 2.4-3.6 1-1 2.2-1.8 3.5-2.3 1.4-0.6 2.8-0.9 4.2-0.9h357.3c1.5 0 2.9 0.3 4.2 0.9 1.3 0.5 2.5 1.3 3.5 2.3 1 1.1 1.9 2.3 2.4 3.6 0.6 1.3 0.8 2.7 0.8 4.2v252.5c0 1.5-0.2 2.9-0.8 4.2-0.5 1.3-1.4 2.5-2.4 3.6-1 1-2.2 1.8-3.5 2.3-1.3 0.6-2.7 0.8-4.2 0.8z"/>
	<path id="Layer" class="s1" d="m791.4 367.2c1.3 0.5 2.5 1.3 3.6 2.3 1 1 1.8 2.2 2.3 3.6 0.6 1.3 0.9 2.7 0.9 4.1v222.9c0 1.4-0.3 2.8-0.9 4.1-0.5 1.4-1.3 2.6-2.3 3.6-1.1 1-2.3 1.8-3.6 2.3-1.3 0.6-2.7 0.9-4.1 0.9h-327.6c-1.4 0-2.9-0.3-4.2-0.9-1.3-0.5-2.5-1.3-3.5-2.3-1-1-1.8-2.2-2.4-3.6-0.5-1.3-0.8-2.7-0.8-4.1v-222.9c0-1.4 0.3-2.8 0.8-4.1 0.6-1.4 1.4-2.6 2.4-3.6 1-1 2.2-1.8 3.5-2.3 1.3-0.6 2.8-0.9 4.2-0.9h327.6c1.4 0 2.8 0.3 4.1 0.9z"/>
	<path id="Layer" class="s3" d="m653.3 472.2c-5.4 23.8-29 38.5-52.7 33.1-23.7-5.5-38.5-29-33-52.7 5.4-23.7 29-38.5 52.7-33.1 23.7 5.5 38.5 29 33 52.7z"/>
	<path id="Layer" class="s4" d="m745.7 611h-242l1.4-13.4c0.3-16.3 9-31 22.2-40.1q0.4-0.4 0.9-0.8 0.5-0.4 1-0.7 0.5-0.3 1.1-0.6 0.5-0.3 1.1-0.5l0.2-0.2q0.8-0.4 1.6-0.8 0.8-0.4 1.6-0.8 0.8-0.4 1.7-0.8 0.8-0.3 1.6-0.7l-0.9 0.6 51.8-23 4.7-13 45.1-2.9 10.6 11.4 52.8 10.8q0.6 0.1 1.2 0.2 0.6 0.2 1.1 0.4 0.6 0.2 1.2 0.4 0.5 0.3 1 0.5h0.1c3.7 1.1 7.3 2.7 10.6 4.7 3.3 2.1 6.3 4.6 9 7.4 2.6 2.9 4.9 6.1 6.6 9.5 1.8 3.5 3.2 7.2 4 11z"/>
	<path id="Layer" class="s5" d="m655.4 473.4q-1.4 3.3-3.1 6.5-1.6 3.2-3.6 6.2-1.9 3-4.1 5.9-2.2 2.9-4.6 5.5c-3.8 4.3-9.5 8.4-14.7 6.2l-1.4-1q5.2-7.9 10.4-15.9c1.9-2.9 3.8-5.9 4.8-9.2 0.9-3.3 0.7-7.1-1.3-9.9-2-2.8-6.2-4.1-9.1-2.3 1.3-8.9-3.4-18.2-10.7-23.5-7.3-5.4-16.8-7.2-25.8-6.3-3.8 0.4-7.5 1.3-11.3 1.1-3.8-0.2-7.8-1.6-9.9-4.8-2.1-3.2-1.8-7.6 0.2-10.8 3.8-6.4 13.8-7.8 19.2-2.7 1.3-6 6.9-10.2 12.9-11.6 5.9-1.4 12.2-0.5 18.1 0.7 2.9 0.7 5.9 1.4 8.2 3.2 2.4 1.7 4 4.9 3 7.7 11.9-0.3 22.4 9.2 26 20.4 3.6 11.3 1.4 23.7-3.2 34.6z"/>
	<path id="Layer" class="s2" d="m468.8 430.3h-454.9c-1.8 0-3.6-0.4-5.3-1.1-1.7-0.7-3.2-1.7-4.5-3-1.3-1.3-2.3-2.8-3-4.5-0.7-1.7-1.1-3.5-1.1-5.3v-321.6c0-1.9 0.4-3.7 1.1-5.3 0.7-1.7 1.7-3.3 3-4.5 1.3-1.3 2.8-2.4 4.5-3.1 1.7-0.7 3.5-1 5.3-1h454.9c1.9 0 3.7 0.3 5.4 1 1.6 0.7 3.2 1.8 4.5 3.1 1.2 1.2 2.3 2.8 3 4.5 0.7 1.6 1 3.4 1 5.3v321.6c0 1.8-0.3 3.6-1 5.3-0.7 1.7-1.8 3.2-3 4.5-1.3 1.3-2.9 2.3-4.5 3-1.7 0.7-3.5 1.1-5.4 1.1z"/>
	<path id="Layer" class="s1" d="m455.2 100.9c1.7 0.7 3.2 1.7 4.5 3 1.3 1.3 2.3 2.8 3 4.5 0.7 1.7 1.1 3.5 1.1 5.3v283.7c0 1.8-0.4 3.7-1.1 5.3-0.7 1.7-1.7 3.3-3 4.5-1.3 1.3-2.8 2.4-4.5 3.1-1.7 0.7-3.5 1-5.3 1h-417.1c-1.8 0-3.6-0.3-5.3-1-1.7-0.7-3.2-1.8-4.5-3.1-1.3-1.2-2.3-2.8-3-4.5-0.7-1.6-1.1-3.5-1.1-5.3v-283.7c0-1.8 0.4-3.6 1.1-5.3 0.7-1.7 1.7-3.2 3-4.5 1.3-1.3 2.8-2.3 4.5-3 1.7-0.7 3.5-1.1 5.3-1.1h417.1c1.8 0 3.6 0.4 5.3 1.1z"/>
	<path id="Layer" class="s5" d="m306.4 251.7c0.2 6.5-1.2 13-4.1 18.9-2.9 5.8-7.2 10.9-12.5 14.8-5.3 3.9-11.4 6.4-17.9 7.4l-95.3 14.4c-3.7 0.5-7.4 1.1-11.1 0.2-3.6-0.8-7.1-3.4-8.3-7.2-1.4-4.8 1-9.9 4-13.7 3-3.8 6.7-7.1 8.5-11.8 2.9-7.8-0.5-16.6-4.6-23.8-4.1-7.1-9.1-14.2-9.5-22.6-0.5-9.1 4.4-17.4 9.4-24.6 10.9-15.9 23.9-31.1 41-37.7 11.8-4.6 24.7-4.6 37.1-2.9 16.7 2.3 33.7 8.1 45.9 20.9 12.2 12.7 18.5 33.5 11.6 50.3l0.8-1.3c3.1 5.7 4.9 12.1 5 18.7z"/>
	<path id="Layer" class="s6" d="m230.5 292.1c-25.8 0-46.6-20.8-46.6-46.6 0-25.8 20.8-46.6 46.6-46.6 25.8 0 46.6 20.8 46.6 46.6 0 25.8-20.8 46.6-46.6 46.6z"/>
	<path id="Layer" class="s4" d="m374.2 411.3h-191.2q-1.9-2.6-4-5.1l-1.3 5.5h-54.9l27.6-60.4c1.5-3.3 3.4-6.3 5.7-9.1 2.4-2.8 5-5.2 8-7.3 3-2 6.2-3.6 9.7-4.8 3.4-1.2 6.9-1.9 10.6-2.1l8.4-0.5 20.3-17.5c0 0 54.5-1.9 53.7-2.9l33 19.9-0.1-0.1 13 0.7c3.6 0.3 7.2 1 10.6 2.1 3.4 1.2 6.7 2.9 9.6 4.9 3 2 5.7 4.5 8 7.3 2.4 2.7 4.3 5.8 5.8 9.1z"/>
	<path id="Layer" class="s5" d="m270.1 215.4q-3.7 5.1-8.2 9.6-4.4 4.5-9.5 8.4-5 3.9-10.5 7-5.5 3.2-11.4 5.5 2.6-2.4 4.9-5.1 2.3-2.7 4.1-5.7 1.9-3.1 3.3-6.3 1.5-3.3 2.4-6.7c-13.7 21.6-35.4 36.1-58.8 39.4l-0.5-2c-5.6 0.2-10.9-3.7-14-9-3.2-5.3-4.3-11.8-4.1-18.2 0.3-10.8 4.4-21.2 11.2-28.6 8.7-9.3 21-13.1 33-14.8q6.2-0.9 12.4-1.2 6.3-0.2 12.5 0.1 6.2 0.4 12.3 1.3 6.2 0.9 12.2 2.5c5.6 1.4 12.1 4.3 13.3 10.7 0.9 4.8-1.8 9.4-4.6 13.1z"/>
	<path id="Layer" class="s1" d="m784.4-21h-27.9c-0.5 0-1.1-0.2-1.4-0.6-0.4-0.3-0.7-0.9-0.7-1.4 0-0.6 0.3-1.1 0.7-1.5 0.3-0.4 0.9-0.6 1.4-0.6h27.9c0.6 0 1.1 0.2 1.5 0.6 0.4 0.4 0.6 0.9 0.6 1.5 0 0.5-0.2 1.1-0.6 1.4-0.4 0.4-0.9 0.6-1.5 0.6z"/>
	<path id="Layer" class="s1" d="m784.4-13.2h-27.9c-0.5 0-1.1-0.2-1.4-0.6-0.4-0.4-0.7-0.9-0.7-1.5 0-0.5 0.3-1 0.7-1.4 0.3-0.4 0.9-0.6 1.4-0.6h27.9c0.6 0 1.1 0.2 1.5 0.6 0.4 0.4 0.6 0.9 0.6 1.4 0 0.6-0.2 1.1-0.6 1.5-0.4 0.4-0.9 0.6-1.5 0.6z"/>
	<path id="Layer" class="s1" d="m784.4-5.4h-27.9c-0.5 0-1.1-0.3-1.4-0.6-0.4-0.4-0.7-1-0.7-1.5 0-0.6 0.3-1.1 0.7-1.5 0.3-0.4 0.9-0.6 1.4-0.6h27.9c0.6 0 1.1 0.2 1.5 0.6 0.4 0.4 0.6 0.9 0.6 1.5 0 0.5-0.2 1.1-0.6 1.5-0.4 0.3-0.9 0.6-1.5 0.6z"/>
</svg>